<?xml version="1.0" encoding="UTF-8" standalone="no"?>
<svg
   width="310"
   height="310"
   version="1.1"
   id="svg6"
   sodipodi:docname="YouTube_full-color_icon_(2017).svg"
   inkscape:export-filename="C:\Users\jingr\Desktop\YouToob_icon_grey.png"
   inkscape:export-xdpi="96"
   inkscape:export-ydpi="96"
   inkscape:version="1.1 (c68e22c387, 2021-05-23)"
   xmlns:inkscape="http://www.inkscape.org/namespaces/inkscape"
   xmlns:sodipodi="http://sodipodi.sourceforge.net/DTD/sodipodi-0.dtd"
   xmlns="http://www.w3.org/2000/svg"
   xmlns:svg="http://www.w3.org/2000/svg">
  <defs
     id="defs10" />
  <sodipodi:namedview
     id="namedview8"
     pagecolor="#ffffff"
     bordercolor="#666666"
     borderopacity="1.0"
     inkscape:pageshadow="2"
     inkscape:pageopacity="0.0"
     inkscape:pagecheckerboard="0"
     showgrid="true"
     inkscape:snap-object-midpoints="false"
     showguides="false"
     inkscape:zoom="1.2374369"
     inkscape:cx="287.28738"
     inkscape:cy="178.99903"
     inkscape:window-width="1664"
     inkscape:window-height="961"
     inkscape:window-x="1892"
     inkscape:window-y="603"
     inkscape:window-maximized="0"
     inkscape:current-layer="layer4"
     height="310px">
    <inkscape:grid
       type="xygrid"
       id="grid875" />
  </sodipodi:namedview>
  <g
     inkscape:groupmode="layer"
     id="layer4"
     inkscape:label="Layer 0">
    <rect
       style="fill:#b7481d;fill-rule:evenodd;opacity:0"
       id="rect877"
       width="310"
       height="310"
       x="0"
       y="0" />
  </g>
  <g
     inkscape:groupmode="layer"
     id="layer1"
     inkscape:label="Layer 1"
     style="display:inline" />
  <g
     id="g829" />
  <g
     inkscape:groupmode="layer"
     id="layer2"
     inkscape:label="Layer 2"
     style="display:inline" />
  <g
     inkscape:groupmode="layer"
     id="layer3"
     inkscape:label="Layer 3"
     style="display:inline">
    <g
       id="g4949"
       transform="matrix(1.2119081,0,0,1.2119081,-37.416579,-32.846049)">
      <g
         id="g5054"
         transform="matrix(1.0333333,0,0,1.0333333,-5.2923811,-5.1666699)">
        <path
           id="path2-2"
           style="display:inline;fill:#ffffff;fill-opacity:1;stroke-width:1.53619"
           d="M 156.61719,71.140627 C 118.62258,71.052267 79.350823,72.501901 61.060547,76.318361 50.722022,79.114223 42.626462,87.17909 39.861328,97.51758 c -6.267631,27.49781 -6.745139,86.9484 0.152344,115.06054 2.795862,10.3386 10.860695,18.43396 21.199219,21.19922 27.497761,6.32892 158.228499,7.21995 187.416019,0 10.3386,-2.79599 18.43404,-10.86062 21.19921,-21.19922 1.55483,-6.96984 2.76989,-15.3469 3.63282,-24.45507 l -41.66992,-3.1211 3.13671,-41.85937 h -0.68164 v -20.28516 h 39.39453 c -0.87855,-9.5486 -2.18595,-18.31092 -3.96679,-25.494137 -2.79592,-10.33859 -10.8608,-18.434083 -21.19922,-21.199219 -7.37759,-2.848189 -48.79686,-4.923299 -91.85742,-5.023437 z" />
        <path
           d="M 250.56208,106.97004 C 248.23219,98.35459 241.51137,91.60817 232.89592,89.30389 221.32331,84.83614 109.23283,82.64708 76.71687,89.4319 c -8.615451,2.32989 -15.361875,9.05071 -17.666156,17.66616 -5.223037,22.91479 -5.619885,72.45684 0.128016,95.8837 2.329884,8.61545 9.050704,15.36187 17.666155,17.66615 22.914794,5.27424 131.856085,6.01674 156.179055,0 8.61545,-2.32988 15.36187,-9.0507 17.66615,-17.66615 5.56868,-24.96305 5.96553,-71.43272 -0.12801,-96.01172 z"
           fill="#ff0000"
           id="path2-8"
           style="display:inline;fill:#484f58;fill-opacity:1;stroke-width:1.28016" />
        <path
           d="m 187.83442,154.9759 -52.23037,-29.95566 v 59.91131 z"
           fill="#ffffff"
           id="path4-0"
           style="display:inline;fill:#c9d1d9;fill-opacity:1;stroke-width:1.28016" />
        <path
           sodipodi:type="star"
           style="fill:#ffffff;fill-opacity:1;fill-rule:evenodd"
           id="path4315"
           inkscape:flatsided="true"
           sodipodi:sides="3"
           sodipodi:cx="265.42856"
           sodipodi:cy="133.71428"
           sodipodi:r1="23.960852"
           sodipodi:r2="11.980426"
           sodipodi:arg1="1.8325957"
           sodipodi:arg2="2.8797933"
           inkscape:rounded="-3.46945e-18"
           inkscape:randomized="0"
           d="m 259.22703,156.85868 -10.74135,-40.08728 40.08728,10.74135 z"
           inkscape:transform-center-x="-0.62944734"
           inkscape:transform-center-y="5.4368226"
           transform="rotate(-11.988313,226.51929,150.02572)" />
      </g>
    </g>
  </g>
</svg>
